<?xml version="1.0" standalone="no"?>
<!DOCTYPE svg PUBLIC "-//W3C//DTD SVG 20010904//EN"
 "http://www.w3.org/TR/2001/REC-SVG-20010904/DTD/svg10.dtd">
<svg version="1.0" xmlns="http://www.w3.org/2000/svg"
 width="844.000000pt" height="1096.000000pt" viewBox="0 0 844.000000 1096.000000"
 preserveAspectRatio="xMidYMid meet">

<g transform="translate(0.000000,1096.000000) scale(0.100000,-0.100000)"
fill="#000000" stroke="none">
<path d="M0 8829 c0 -2025 1 -2131 17 -2118 10 8 52 43 93 77 114 96 116 96
60 -20 -28 -57 -74 -169 -103 -251 -30 -81 -55 -145 -58 -143 -2 2 -5 -9 -6
-24 -2 -25 3 -31 33 -42 34 -12 35 -13 13 -19 -21 -6 -21 -7 7 -8 27 -1 32 -6
37 -31 5 -24 12 -30 31 -30 16 0 27 -7 31 -21 4 -11 12 -18 19 -16 9 4 13 -17
14 -75 1 -69 4 -83 23 -99 27 -23 20 -24 -91 -4 -47 8 -93 15 -102 15 -17 0
-18 -150 -18 -3010 l0 -3010 1203 0 1203 0 -7 53 c-4 28 -8 118 -8 200 -1 115
-4 147 -14 147 -27 0 -123 -32 -155 -52 -24 -15 -36 -18 -44 -10 -15 15 17 52
44 52 10 0 47 12 81 26 146 62 441 144 459 126 5 -5 -8 -14 -34 -21 -192 -56
-270 -86 -279 -108 -11 -30 -32 -368 -24 -393 6 -19 16 -20 240 -20 l234 0 59
113 c79 148 80 152 46 180 -14 12 -43 37 -62 56 l-36 34 62 59 c73 68 139 114
150 104 4 -4 -7 -17 -23 -29 -56 -40 -125 -110 -125 -126 0 -19 62 -71 84 -71
28 0 27 -21 -3 -86 -17 -37 -31 -68 -31 -70 0 -8 92 59 95 70 2 6 11 46 20 88
16 76 37 119 50 106 4 -4 7 -41 6 -82 -1 -78 3 -85 40 -66 13 7 19 7 19 1 0
-6 -13 -17 -30 -26 -29 -15 -30 -17 -30 -90 0 -41 -4 -75 -9 -75 -5 0 -12 30
-16 67 -6 57 -9 65 -19 51 -7 -10 -21 -53 -31 -98 -12 -55 -23 -80 -33 -80 -9
0 -12 6 -7 18 13 32 28 122 22 129 -4 3 -22 -6 -42 -21 -19 -15 -39 -25 -44
-22 -7 5 -81 -113 -81 -129 0 -3 99 -5 220 -5 l220 0 2 48 c0 26 1 53 1 59 -1
18 -76 143 -86 143 -5 0 -6 -4 -2 -9 3 -5 1 -12 -4 -15 -5 -3 -16 -37 -26 -75
-9 -38 -23 -78 -31 -88 -14 -17 -15 -17 -10 2 3 11 8 43 12 70 3 28 13 65 20
84 8 18 14 41 14 51 0 10 10 39 22 66 22 48 23 48 26 19 4 -38 19 -79 51 -134
l25 -44 34 164 c44 219 72 248 37 39 -34 -198 -38 -239 -27 -280 9 -36 8 -40
-7 -35 -12 3 -19 -4 -27 -30 l-11 -35 63 0 64 0 0 32 0 31 -25 -23 c-37 -35
-41 -17 -7 32 30 42 31 46 30 145 l-1 102 -25 -20 c-37 -29 -40 -13 -5 24 25
26 32 44 38 95 9 77 25 81 25 6 0 -50 2 -55 18 -49 50 22 93 29 110 18 37 -24
0 -125 -86 -237 -36 -46 -46 -69 -50 -107 l-5 -49 607 0 c571 0 606 1 605 18
-2 36 -15 67 -23 54 -8 -14 -76 -17 -76 -3 0 5 14 11 32 15 17 3 37 11 45 17
17 14 17 86 1 92 -10 3 -10 9 -1 25 7 12 9 31 5 47 l-8 27 -18 -21 c-39 -43
-49 -18 -11 27 22 26 25 40 25 103 0 79 4 92 34 103 27 10 33 -5 26 -74 -3
-33 -4 -60 -2 -60 1 0 20 9 40 19 20 10 51 21 67 22 17 2 34 13 40 23 12 22
41 43 50 35 3 -3 0 -50 -5 -105 -6 -54 -10 -130 -8 -167 l3 -68 83 41 c46 22
89 40 95 40 19 -1 -41 -46 -120 -92 -40 -23 -73 -45 -73 -50 0 -4 -9 -8 -19
-8 -27 0 -34 31 -21 82 7 23 13 84 15 134 l2 91 -49 -46 -49 -45 25 -13 c41
-21 34 -56 -24 -117 -45 -48 -50 -57 -50 -99 l0 -47 280 0 280 0 0 40 c0 22
-3 40 -6 40 -4 0 -21 -16 -38 -37 -18 -20 -38 -34 -45 -32 -10 4 1 22 33 57
46 53 46 53 47 130 1 42 3 121 5 175 3 94 2 97 -19 97 -12 0 -35 -9 -52 -20
-16 -11 -39 -20 -50 -20 -18 1 -16 4 9 25 16 13 46 31 67 40 35 16 49 37 49
76 0 10 -28 30 -75 53 -41 20 -99 59 -130 87 -30 28 -55 49 -55 46 0 -2 14
-46 30 -97 17 -51 28 -95 25 -99 -4 -3 -70 -5 -148 -3 -162 3 -165 4 -200 102
l-18 51 -142 -3 -142 -3 -23 -72 -24 -73 -41 0 c-453 -5 -1027 3 -1027 14 0 0
-4 16 -9 34 -9 29 -7 34 12 42 16 6 17 9 6 9 -9 1 -20 8 -23 17 -3 9 -6 100
-6 204 0 159 2 189 15 194 14 5 15 44 11 315 l-4 310 419 0 419 -1 0 -135 c0
-131 -1 -135 -22 -141 -23 -6 -23 -6 2 -13 27 -8 -109 -11 -362 -9 l-158 1 0
-67 0 -66 178 3 c97 2 212 2 255 1 l77 -2 0 -59 c0 -44 -4 -60 -16 -65 -12 -4
-15 -19 -14 -58 1 -29 1 -66 1 -81 l-1 -29 -227 2 c-126 1 -240 2 -254 1 -23
-1 -26 -5 -27 -49 -1 -26 2 -53 7 -61 7 -11 57 -14 270 -13 l261 1 0 -35 c0
-19 4 -33 9 -29 5 3 37 88 71 190 37 112 67 185 74 185 13 0 24 24 67 155 12
39 46 138 73 220 l51 150 143 3 c96 2 141 -1 137 -8 -3 -5 0 -10 7 -10 10 0
10 -2 -1 -9 -12 -7 -1 -48 57 -227 40 -120 68 -221 63 -224 -5 -3 -3 -18 4
-35 l13 -30 1 38 c1 25 6 37 16 37 8 0 19 17 26 42 42 158 188 316 344 373 28
10 55 23 62 29 9 8 10 50 5 166 -5 102 -4 157 3 162 17 12 22 -12 35 -157 6
-77 13 -145 15 -151 1 -6 19 -8 38 -6 33 4 35 6 27 28 -5 13 -6 23 -2 23 20
-3 20 3 1 22 -16 16 -19 27 -14 47 4 15 9 39 10 55 3 44 15 44 15 -1 0 -22 -5
-44 -10 -47 -6 -3 -10 -13 -10 -22 0 -12 3 -13 14 -4 12 10 16 3 21 -43 l7
-56 144 0 145 0 -3 -148 -3 -147 -155 -1 c-111 0 -165 -4 -190 -15 -48 -20
-61 -29 -55 -39 3 -5 1 -11 -5 -15 -5 -3 -10 1 -10 11 0 15 -2 15 -27 -1 -16
-10 -38 -31 -51 -46 -13 -16 -30 -29 -38 -29 -22 0 -46 -67 -46 -130 -1 -77
25 -131 88 -189 71 -65 115 -75 314 -76 l155 0 3 -147 3 -147 -35 -7 c-19 -3
-114 -4 -210 -3 -162 4 -176 3 -176 -13 0 -17 29 -24 81 -19 23 2 69 -55 69
-85 0 -48 -87 -210 -146 -272 -22 -23 -34 -69 -34 -134 l0 -38 124 0 125 0 -6
220 c-4 156 -2 220 6 220 14 0 18 -25 26 -140 3 -52 8 -108 12 -124 l6 -29 18
34 c10 19 18 43 19 55 0 11 9 29 19 38 25 23 33 11 47 -74 l11 -65 32 70 c18
39 41 88 51 110 60 129 88 193 94 213 7 20 26 32 26 15 -1 -15 -48 -151 -73
-209 -13 -33 -44 -110 -67 -171 -64 -167 -97 -185 -107 -58 -6 73 -12 73 -38
0 -10 -27 -21 -54 -25 -60 -29 -42 -24 -45 84 -45 l104 0 11 44 c15 60 14 76
-4 76 -24 0 -17 29 9 41 24 11 41 46 67 137 14 50 43 72 57 45 5 -10 7 -44 5
-75 -5 -62 -3 -64 44 -47 23 7 32 18 37 41 9 48 8 50 -24 43 -39 -9 -38 -2 4
23 26 16 33 25 29 41 -8 31 5 69 26 81 25 13 53 2 47 -19 -22 -72 -22 -71 31
-71 36 0 55 -5 66 -18 10 -10 17 -21 17 -25 0 -5 -76 -66 -124 -99 -12 -8 15
-49 76 -112 48 -51 64 -80 29 -55 -10 8 -46 35 -81 61 -35 26 -66 45 -70 43
-4 -3 -11 -31 -14 -62 -4 -32 -9 -66 -12 -75 -5 -17 37 -18 794 -18 l799 0 -3
28 c-4 26 -3 26 4 2 10 -31 42 -40 42 -11 0 11 8 27 17 37 12 11 14 19 6 21
-8 3 -8 12 0 33 6 17 14 30 18 30 10 0 10 98 -1 105 -13 8 -13 72 0 80 13 8
13 75 -1 75 -6 0 -8 -8 -4 -20 3 -10 -1 -40 -10 -66 -9 -28 -13 -59 -9 -77 4
-20 3 -27 -5 -23 -7 5 -11 -2 -11 -18 0 -14 -5 -28 -12 -32 -8 -5 -9 2 -4 27
4 19 10 50 13 69 3 19 34 177 69 350 392 1919 418 2059 401 2105 -5 13 -11 14
-27 5 -26 -14 -277 -223 -424 -353 l-109 -96 -54 -143 c-54 -143 -210 -600
-243 -713 -81 -273 -118 -404 -156 -555 -25 -96 -47 -182 -51 -190 -3 -8 -7
-27 -8 -42 -2 -15 -6 -35 -10 -45 -4 -10 -9 -25 -10 -33 -7 -45 -29 -146 -34
-152 -3 -4 -6 12 -6 35 l0 42 -42 3 c-24 2 -43 8 -43 14 0 6 18 9 45 6 l45 -3
-1 35 c-1 19 -3 28 -5 20 -6 -19 -125 -22 -131 -2 -3 6 -18 12 -34 12 -26 0
-29 4 -29 30 0 20 -5 30 -15 30 -9 0 -15 -10 -15 -26 0 -19 7 -28 30 -37 16
-6 30 -17 30 -23 0 -14 -60 -27 -84 -18 -9 4 -16 1 -16 -6 0 -7 -7 -10 -16 -6
-9 4 -23 1 -30 -5 -11 -9 -14 -8 -14 4 0 8 4 17 10 19 6 2 6 8 0 18 -8 13 -10
12 -10 -2 0 -22 -37 -24 -65 -4 -23 15 -98 29 -90 16 3 -4 -16 -1 -42 9 -25 9
-48 23 -50 31 -4 13 -3 13 7 0 8 -12 9 -8 3 15 -3 17 -7 51 -7 77 0 28 -4 44
-10 41 -5 -4 -7 0 -3 9 3 9 9 68 13 132 l7 117 -162 -3 -163 -3 2 -207 1 -208
-158 0 -158 0 3 377 c1 240 6 379 12 381 6 2 10 76 10 193 l0 189 155 -3 c116
-1 155 -5 155 -14 0 -7 -3 -14 -7 -14 -5 -1 -21 -3 -37 -5 -36 -4 -37 -5 -21
-27 11 -16 16 -16 34 -6 11 7 22 11 25 8 3 -3 7 -69 8 -147 2 -127 0 -143 -16
-155 -10 -7 -16 -22 -14 -33 3 -18 13 -19 163 -19 178 0 174 -2 160 72 -5 27
-10 33 -23 29 -13 -5 -12 -2 3 10 11 8 26 19 33 23 9 5 13 39 14 115 1 59 5
109 10 112 5 3 4 12 -2 19 -7 8 -9 18 -6 24 8 12 308 14 316 2 5 -9 155 101
318 232 26 21 119 93 207 159 88 67 212 165 275 217 107 90 600 564 753 724
l67 71 0 3933 0 3933 -4220 0 -4220 0 0 -2131z m4457 1704 c-8 -9 -20 -12 -26
-8 -8 4 -4 13 11 25 26 21 39 6 15 -17z m232 28 c11 -7 9 -10 -8 -16 -12 -3
-19 -11 -16 -16 4 -5 -4 -9 -16 -9 -18 0 -19 2 -9 15 11 13 8 15 -16 16 -27 2
-27 2 6 9 19 4 37 8 40 9 3 0 11 -3 19 -8z m-311 -17 c24 -17 29 -34 10 -34
-14 1 -54 50 -41 50 5 0 19 -7 31 -16z m197 -74 c1 -41 -2 -83 -7 -92 -8 -16
-2 -18 59 -18 48 0 64 -3 56 -11 -7 -7 -52 -10 -126 -7 -96 2 -118 6 -136 22
-21 19 -22 19 -52 -3 -22 -17 -34 -20 -42 -12 -8 8 -2 14 21 22 30 10 32 14
32 56 0 37 3 44 17 41 14 -3 17 -12 15 -45 -4 -51 13 -63 86 -63 l50 0 -2 83
c-3 88 1 110 17 104 5 -1 11 -36 12 -77z m-85 -15 c0 -33 -4 -45 -15 -45 -11
0 -15 12 -15 45 0 33 4 45 15 45 11 0 15 -12 15 -45z m172 5 c-3 -26 -9 -40
-18 -40 -10 0 -14 12 -14 40 0 32 4 40 18 40 14 0 17 -7 14 -40z m23 -60 c4
-6 -7 -10 -27 -10 -25 0 -29 3 -18 10 19 13 37 13 45 0z m-158 -229 c24 -25
70 -48 129 -62 41 -11 45 -14 27 -22 -15 -7 -35 -1 -80 21 -32 17 -65 38 -72
46 -10 12 -17 13 -27 5 -7 -6 -41 -26 -76 -44 -41 -22 -58 -36 -48 -40 18 -6
18 -91 1 -108 -8 -8 -11 6 -11 52 0 58 -2 63 -20 58 -33 -9 -23 0 39 33 33 18
69 43 82 56 27 29 33 29 56 5z m2541 -31 c-7 -10 -14 -17 -17 -15 -4 4 18 35
25 35 2 0 -1 -9 -8 -20z m-2488 -36 c0 -2 -12 -4 -27 -4 -21 0 -24 3 -14 9 13
8 41 5 41 -5z m2133 -14 c3 -11 1 -18 -4 -14 -5 3 -9 12 -9 20 0 20 7 17 13
-6z m-2226 -65 c-1 -25 -6 -46 -12 -48 -11 -2 -19 67 -11 90 11 28 25 2 23
-42z m65 -15 c-5 -81 -22 -77 -22 5 0 47 3 63 13 60 8 -4 11 -24 9 -65z m98
12 c-5 -48 -29 -67 -53 -43 -8 8 -6 11 7 11 15 0 17 7 14 40 -2 22 1 41 7 43
24 9 31 -5 25 -51z m2323 -177 c4 -8 2 -17 -3 -20 -6 -4 -10 3 -10 14 0 25 6
27 13 6z m-3101 -106 c-4 -60 -3 -61 20 -55 l23 6 -22 -11 c-19 -10 -23 -20
-23 -61 0 -53 -15 -68 -47 -49 -17 10 -17 10 0 11 13 0 17 9 17 40 0 38 -2 40
-20 30 -16 -9 -20 -8 -20 5 0 8 9 15 20 15 18 0 20 7 20 65 0 55 3 65 18 65
15 0 17 -8 14 -61z m82 -12 c-4 -86 -34 -157 -67 -157 -6 0 -3 8 6 18 20 22
36 92 37 159 0 40 3 51 14 47 9 -4 12 -22 10 -67z m191 63 c4 -6 -5 -10 -20
-10 -15 0 -24 4 -20 10 3 6 12 10 20 10 8 0 17 -4 20 -10z m358 3 c4 -3 2 -12
-4 -20 -14 -16 -1 -17 37 -3 17 7 31 7 37 1 6 -6 -8 -12 -39 -16 -60 -9 -104
-33 -83 -46 11 -7 12 -9 1 -9 -8 0 -27 -9 -44 -21 -45 -32 -47 -14 -2 26 l39
34 -27 1 c-15 0 -29 3 -32 8 -2 4 12 6 33 4 26 -3 41 1 51 13 12 14 12 18 -1
26 -11 7 -10 9 7 9 11 0 24 -3 27 -7z m-588 -43 c3 -5 -3 -10 -15 -10 -12 0
-18 5 -15 10 3 6 10 10 15 10 5 0 12 -4 15 -10z m210 0 c3 -5 -3 -10 -15 -10
-12 0 -18 5 -15 10 3 6 10 10 15 10 5 0 12 -4 15 -10z m2747 -32 c-8 -8 -9 -4
-5 13 4 13 8 18 11 10 2 -7 -1 -18 -6 -23z m-2222 -7 c0 -4 -25 -13 -56 -20
-35 -8 -57 -19 -61 -29 -13 -44 -16 -47 -20 -24 -5 27 -23 28 -53 4 -38 -31
-17 -44 69 -42 95 3 99 2 81 -10 -17 -11 -112 -12 -150 -1 -40 11 -33 50 13
74 30 15 35 22 26 33 -14 17 -5 18 20 2 15 -9 27 -8 57 4 22 8 38 20 36 27 -2
9 3 9 18 1 11 -6 20 -14 20 -19z m-505 -1 c4 -6 -6 -10 -22 -10 -22 0 -25 2
-13 10 19 12 27 12 35 0z m-135 -60 c0 -45 2 -50 23 -51 21 -1 21 -1 -3 -8
-50 -15 -90 -20 -90 -11 0 5 10 10 23 12 20 3 22 8 21 56 -1 37 3 52 13 52 9
0 13 -15 13 -50z m50 31 c0 -31 19 -35 45 -11 17 16 28 19 39 13 13 -7 9 -11
-19 -22 -19 -7 -35 -16 -35 -21 0 -5 19 -19 42 -31 35 -18 39 -23 24 -31 -23
-13 -83 33 -102 78 -17 40 -17 44 -4 44 6 0 10 -9 10 -19z m2751 -35 c-12 -13
-26 -36 -31 -52 -9 -25 -9 -24 -4 11 5 38 25 65 48 65 5 0 -1 -11 -13 -24z
m-2881 -236 c19 -10 19 -11 0 -43 -11 -17 -20 -39 -20 -47 1 -8 7 -3 16 12 12
24 42 48 58 48 2 0 -9 -13 -25 -29 -19 -20 -29 -40 -29 -60 0 -38 -17 -40 -30
-5 -7 17 -7 39 1 66 5 22 8 46 5 54 -6 17 -1 17 24 4z m535 0 c3 -5 -3 -10
-15 -10 -12 0 -18 5 -15 10 3 6 10 10 15 10 5 0 12 -4 15 -10z m103 -22 c-12
-38 -34 -65 -63 -80 -15 -9 -13 -4 8 21 16 19 27 45 27 62 0 22 5 29 19 29 18
0 19 -3 9 -32z m-173 -25 c-9 -22 -15 -62 -14 -100 1 -35 -1 -66 -4 -69 -15
-15 -24 10 -19 51 5 46 -3 55 -27 33 -8 -7 -2 5 12 27 14 22 29 52 32 68 4 15
13 27 21 27 12 0 12 -6 -1 -37z m238 -8 c-7 -42 15 -48 41 -12 11 16 14 17 9
3 -3 -10 0 -22 8 -26 9 -6 6 -10 -13 -15 -48 -12 -63 -3 -69 42 -3 26 -1 44 5
46 20 7 25 -3 19 -38z m-580 7 c11 -10 17 -29 17 -57 0 -33 -6 -47 -32 -72
-18 -18 -46 -36 -63 -42 l-30 -11 25 18 c55 38 70 63 70 114 0 34 -4 50 -15
54 -8 4 -15 10 -15 16 0 10 16 3 43 -20z m399 -94 c-2 -32 -8 -58 -13 -58 -10
0 -12 113 -2 124 14 13 19 -10 15 -66z m133 15 c-2 -16 -4 -43 -4 -60 -1 -22
-6 -33 -16 -33 -11 0 -13 12 -11 58 5 68 3 62 20 62 10 0 13 -9 11 -27z m100
-13 c4 -6 -12 -10 -42 -9 -43 1 -45 2 -18 9 44 11 53 11 60 0z m315 0 c0 -6
-7 -13 -15 -16 -24 -10 -17 -24 12 -24 46 0 9 -23 -87 -54 -98 -33 -155 -60
-248 -120 -114 -73 -113 -76 19 -76 119 0 518 23 698 40 103 10 120 17 121 50
1 9 5 6 10 -7 8 -21 14 -22 76 -18 36 2 71 8 78 13 21 17 66 22 89 11 19 -10
20 -10 10 2 -9 12 -4 14 32 14 34 0 41 -2 33 -12 -13 -16 -6 -16 156 -3 65 5
124 14 129 19 6 6 16 11 22 11 5 0 3 -5 -5 -10 -11 -7 0 -10 38 -10 29 0 52
-5 52 -10 0 -6 16 -20 35 -31 19 -12 35 -29 35 -39 0 -44 255 -228 560 -405
74 -43 171 -102 214 -131 44 -30 82 -52 84 -49 2 2 -1 36 -8 75 -8 47 -10 106
-5 173 10 123 14 111 45 -115 13 -89 28 -168 34 -175 17 -18 353 -234 430
-277 43 -23 77 -35 90 -32 36 9 49 -7 42 -49 -10 -50 1 -108 25 -133 24 -26
24 -34 2 -31 -48 4 -82 -3 -104 -22 -13 -12 -23 -26 -21 -33 2 -6 0 -8 -3 -4
-40 40 -534 -487 -512 -546 3 -8 -2 -16 -13 -19 -20 -5 -110 -152 -110 -179 0
-10 -4 -18 -9 -18 -9 0 -47 -81 -86 -185 -35 -92 -66 -277 -69 -409 -2 -96 0
-112 16 -128 36 -36 20 -57 -61 -84 -41 -14 -95 -38 -118 -55 -24 -16 -47 -29
-50 -29 -4 0 -38 20 -77 44 -176 108 -402 236 -530 299 -109 54 -152 70 -198
74 -40 4 -58 10 -58 19 0 8 -5 14 -10 14 -18 0 -63 47 -56 59 4 6 22 11 41 11
25 0 35 5 40 20 3 11 10 20 15 20 4 0 32 16 60 35 29 20 54 34 57 32 2 -2 -20
-25 -48 -52 -48 -45 -57 -70 -27 -79 7 -3 54 -16 103 -31 50 -15 135 -42 189
-61 55 -19 125 -37 157 -41 78 -8 180 13 259 53 71 36 85 53 159 201 22 45 70
128 107 184 36 56 63 108 60 116 -3 8 -2 11 3 8 12 -7 42 35 34 48 -3 6 -1 7
4 4 14 -9 37 19 27 34 -4 7 -3 9 4 5 11 -7 22 6 154 174 45 58 134 164 197
235 64 72 145 164 182 205 61 69 90 120 68 120 -5 0 -9 7 -9 15 0 8 4 15 8 15
5 0 16 18 24 39 18 44 13 53 -42 81 -14 7 -47 32 -75 55 -27 23 -101 76 -162
119 l-113 77 0 -43 c0 -56 18 -317 26 -388 4 -30 4 -53 1 -50 -3 3 -15 88 -26
190 -12 102 -26 216 -32 253 l-11 68 -97 63 c-218 142 -263 169 -401 246 -173
96 -411 192 -580 235 -36 9 -92 25 -126 35 -44 14 -70 16 -97 10 -21 -4 -37
-4 -37 1 0 5 5 9 12 9 8 0 8 3 3 9 -6 5 -64 14 -130 20 -98 9 -122 8 -130 -2
-5 -8 -16 -12 -22 -10 -18 6 -15 -15 8 -62 11 -24 17 -30 14 -15 -6 23 -5 24
6 5 18 -30 56 -65 63 -57 4 3 11 0 16 -8 8 -12 10 -12 10 -1 0 8 7 11 20 8 11
-3 20 -1 20 4 0 5 7 9 16 9 26 0 5 -19 -33 -29 -32 -9 -42 -7 -83 16 -39 22
-53 38 -79 90 l-31 63 -117 0 c-281 0 -790 -41 -866 -69 -21 -8 -20 -8 6 -26
15 -9 27 -26 27 -36 0 -27 -9 -24 -52 18 l-38 37 -150 -33 c-187 -41 -385
-103 -434 -136 -44 -30 -51 -31 -41 -7 4 9 7 29 6 43 -1 23 4 28 32 33 62 12
66 20 68 134 1 92 3 102 20 102 16 0 19 -10 21 -91 l3 -91 28 22 c15 12 32 30
37 41 9 16 5 22 -25 40 -45 27 -40 33 13 15 40 -15 41 -15 67 17 14 18 24 27
20 20 -9 -19 28 -33 85 -33 41 0 65 8 114 35 35 19 71 44 81 55 10 11 25 20
33 20 56 0 392 126 392 147 0 9 18 13 63 14 55 2 57 3 22 8 l-40 6 30 17 c33
19 85 24 85 8z m-473 -6 c-3 -3 -12 -4 -19 -1 -8 3 -5 6 6 6 11 1 17 -2 13 -5z
m-371 -239 c17 -13 12 -14 -56 -13 -64 0 -69 2 -33 7 24 4 46 10 49 14 11 10
18 9 40 -8z m-329 -11 c-3 -3 -12 -4 -19 -1 -8 3 -5 6 6 6 11 1 17 -2 13 -5z
m1720 -236 c-3 -8 -6 -5 -6 6 -1 11 2 17 5 13 3 -3 4 -12 1 -19z m-30 -25 c-3
-10 -5 -4 -5 12 0 17 2 24 5 18 2 -7 2 -21 0 -30z m50 -85 c-3 -8 -6 -5 -6 6
-1 11 2 17 5 13 3 -3 4 -12 1 -19z m10 -55 c-3 -10 -5 -4 -5 12 0 17 2 24 5
18 2 -7 2 -21 0 -30z m-1531 12 c2 -5 -19 -23 -47 -40 -62 -37 -86 -61 -45
-45 44 16 121 12 146 -8 45 -37 -1 -86 -91 -97 l-44 -5 47 15 c29 9 55 26 65
42 16 24 16 26 -3 40 -28 21 -114 10 -171 -21 -25 -14 -47 -26 -49 -26 -11 0
-2 29 11 34 20 7 144 99 145 107 0 3 -23 2 -51 -4 -40 -8 -53 -7 -64 4 -12 12
-2 14 67 14 45 0 83 -4 84 -10z m1641 -47 c-3 -8 -6 -5 -6 6 -1 11 2 17 5 13
3 -3 4 -12 1 -19z m-100 -20 c-3 -7 -5 -2 -5 12 0 14 2 19 5 13 2 -7 2 -19 0
-25z m131 -93 c0 -13 -5 -7 -13 15 -7 19 -13 46 -13 60 0 19 3 16 13 -15 8
-22 13 -49 13 -60z m-98 55 c7 -14 7 -20 0 -20 -5 0 -10 -8 -11 -17 -1 -18
-16 19 -18 45 -2 19 17 14 29 -8z m14 -77 c-3 -27 -1 -59 5 -73 10 -22 10 -19
6 20 -4 32 -2 39 4 25 5 -11 10 -32 10 -47 1 -15 7 -33 15 -41 13 -12 12 -16
-8 -25 -16 -7 -23 -7 -23 1 0 7 -8 40 -17 74 -12 44 -13 69 -6 87 15 39 20 31
14 -21z m121 -110 c-9 -24 -43 -14 -57 17 -13 30 -13 30 -19 8 -4 -14 -6 -4
-6 26 l1 48 21 -46 c11 -25 24 -46 29 -46 5 0 6 24 2 53 l-6 52 20 -50 c11
-27 18 -56 15 -62z m-238 35 c-3 -7 -5 -2 -5 12 0 14 2 19 5 13 2 -7 2 -19 0
-25z m-1533 -125 c19 -21 28 -25 51 -19 23 6 26 9 14 17 -12 7 -12 9 1 8 8 0
24 -4 35 -9 19 -7 18 -9 -8 -19 -16 -6 -33 -11 -38 -11 -16 0 -10 -13 22 -46
39 -40 32 -58 -16 -38 -35 14 -111 19 -139 8 -9 -3 -16 -14 -16 -24 0 -23 19
-30 85 -30 30 0 57 -4 60 -10 9 -15 -105 -12 -135 3 -14 7 -26 23 -28 35 -4
29 30 42 115 42 l66 0 -24 26 c-21 22 -29 25 -71 19 -26 -4 -57 -3 -70 2 -18
6 -8 9 42 13 l65 5 -37 19 c-20 11 -35 23 -32 28 10 16 35 8 58 -19z m531 -10
c-16 -92 -49 -140 -122 -177 -42 -21 -54 -21 -23 1 75 49 100 88 115 176 4 23
11 37 21 37 12 0 14 -8 9 -37z m151 -30 c-2 -10 -10 -43 -16 -74 -13 -69 -36
-94 -79 -84 -36 8 -33 25 3 18 31 -6 44 17 53 97 5 50 9 60 25 60 14 0 18 -5
14 -17z m1602 -288 c22 5 25 4 15 -6 -7 -7 -30 -12 -50 -12 l-37 1 24 -19 c27
-20 21 -25 -11 -9 -15 9 -19 7 -20 -7 0 -14 -3 -12 -10 6 -5 13 -7 32 -4 42 5
15 10 16 36 7 16 -5 42 -7 57 -3z m-2359 -24 c17 -9 21 -47 7 -69 -10 -16 5
-15 29 2 11 7 31 16 45 20 14 4 1 -7 -27 -23 -53 -31 -53 -32 -53 -81 0 -59
-10 -67 -40 -35 -12 13 -28 21 -35 19 -30 -12 -22 15 15 51 46 45 50 58 15 45
-25 -9 -55 -4 -55 9 0 4 12 6 28 4 15 -3 36 2 47 11 17 13 18 18 7 35 -13 23
-10 26 17 12z m500 -24 c8 -10 5 -26 -11 -64 -13 -31 -18 -58 -14 -69 7 -17 9
-16 23 9 8 16 16 27 18 25 7 -7 -23 -82 -34 -86 -16 -5 -24 44 -16 101 4 29 8
62 9 75 1 25 9 28 25 9z m192 3 c5 0 7 -11 3 -25 -6 -24 -5 -25 20 -16 16 7
27 7 31 1 4 -6 -7 -13 -24 -16 -28 -6 -31 -10 -31 -45 0 -31 4 -39 18 -39 22
0 60 -26 51 -35 -4 -3 -18 -1 -32 6 -20 9 -30 8 -48 -5 -37 -25 -109 -19 -109
10 0 18 32 34 69 34 28 0 31 3 31 30 0 27 -3 30 -32 31 -18 0 -42 5 -53 10
-16 8 -14 8 11 5 63 -10 95 18 62 53 -11 11 -10 13 5 7 10 -3 23 -6 28 -6z
m1568 -50 c0 -9 -4 -8 -9 5 -5 11 -9 27 -9 35 0 9 4 8 9 -5 5 -11 9 -27 9 -35z
m-2090 26 c9 -11 9 -25 1 -56 -17 -61 -9 -74 43 -66 32 5 38 3 24 -5 -28 -17
-79 -14 -93 5 -10 15 -10 26 1 64 8 25 13 47 12 49 -2 1 -14 6 -27 12 l-25 10
26 0 c15 1 32 -5 38 -13z m1946 -47 c4 -12 2 -26 -5 -33 -8 -8 -9 -6 -4 8 6
16 4 18 -9 13 -17 -6 -24 13 -10 26 12 12 22 7 28 -14z m-225 -8 c0 -14 -18
-23 -30 -16 -6 4 -8 11 -5 16 8 12 35 12 35 0z m388 -71 l0 -25 -8 25 c-4 14
-8 36 -8 50 l0 25 8 -25 c4 -14 8 -36 8 -50z m1059 33 c-3 -10 -5 -4 -5 12 0
17 2 24 5 18 2 -7 2 -21 0 -30z m-1098 -168 c-4 -27 -12 -61 -18 -75 -13 -34
-14 -9 0 27 6 15 11 78 11 138 1 109 1 109 8 35 4 -41 4 -97 -1 -125z m968
163 c-3 -8 -6 -5 -6 6 -1 11 2 17 5 13 3 -3 4 -12 1 -19z m-1062 -55 c-4 -21
-16 -54 -28 -73 -26 -43 -104 -128 -130 -142 -10 -5 8 17 41 49 61 60 94 113
107 171 9 45 19 40 10 -5z m1098 -73 c14 -58 29 -113 32 -122 4 -10 3 -18 -3
-18 -14 0 -20 20 -43 129 -33 161 -24 169 14 11z m-1213 44 c0 -14 -3 -14 -15
-4 -8 7 -15 14 -15 16 0 2 7 4 15 4 8 0 15 -7 15 -16z m-200 -91 c26 -26 28
-31 9 -18 -33 24 -55 54 -62 85 -6 23 -6 23 6 -2 7 -16 28 -44 47 -65z m788
-27 c17 -27 32 -56 32 -65 -1 -9 -7 -2 -15 16 -7 18 -33 53 -57 80 -30 33 -35
43 -18 32 14 -9 40 -37 58 -63z m-840 4 c0 -9 -3 -7 -8 5 -5 11 -8 29 -8 40 0
16 2 15 8 -5 4 -14 8 -32 8 -40z m412 -35 c-19 -40 -94 -115 -114 -115 -4 0 9
19 28 42 20 23 36 46 36 52 0 6 4 5 9 -3 7 -11 15 -4 32 32 13 26 25 45 27 42
2 -2 -6 -24 -18 -50z m-787 -3 c-21 -20 -42 -35 -47 -33 -5 2 -6 -2 -4 -10 7
-19 -20 -71 -32 -64 -17 10 26 79 71 113 56 42 59 41 12 -6z m-1342 1 c96 14
101 3 24 -47 l-68 -44 69 5 c58 5 73 2 93 -14 49 -40 -11 -93 -107 -93 -58 0
-87 21 -53 39 27 15 37 14 78 -5 33 -16 35 -16 56 5 55 55 -58 83 -146 36 -55
-29 -57 -29 -57 -12 1 6 27 29 58 50 111 73 117 82 39 64 -42 -9 -50 -8 -65 8
-16 17 -16 17 1 8 12 -6 41 -6 78 0z m533 -15 c14 -20 19 -21 49 -10 40 14 60
15 53 3 -3 -5 -22 -12 -42 -15 -29 -6 -33 -10 -24 -22 14 -16 46 -19 55 -4 8
13 45 13 45 0 0 -5 -16 -12 -35 -16 -41 -7 -42 -10 -13 -41 28 -30 14 -48 -26
-33 -30 11 -105 14 -130 4 -9 -3 -16 -12 -16 -19 0 -19 24 -25 91 -25 33 0 59
-4 59 -10 0 -13 -111 -13 -144 0 -31 11 -35 45 -7 60 11 5 49 10 85 10 63 0
81 9 54 27 -7 4 -38 6 -68 5 -30 -1 -62 2 -70 8 -12 9 -10 10 8 5 32 -9 104 4
99 18 -2 7 -29 12 -66 13 -79 2 -94 14 -16 14 50 0 56 2 45 15 -7 8 -19 15
-26 15 -8 0 -14 5 -14 10 0 19 39 10 54 -12z m1976 -113 l17 -59 28 42 c15 23
29 42 32 42 8 0 -36 -76 -55 -93 -12 -11 -23 -38 -27 -66 -15 -112 -41 -85
-47 48 -3 93 -2 100 9 70 13 -32 13 -31 8 26 -3 32 -8 71 -11 85 -10 48 28
-30 46 -95z m-446 22 c-7 -20 -86 -67 -112 -67 -38 0 -10 26 42 39 24 6 49 17
56 26 15 18 21 19 14 2z m379 -82 c5 -42 5 -45 -4 -22 -6 15 -17 27 -24 27 -7
0 -16 7 -19 16 -8 22 -8 24 6 22 7 -2 14 8 16 22 4 23 5 23 12 5 4 -11 10 -42
13 -70z m-1193 66 c0 -6 -12 -23 -26 -38 l-25 -28 23 37 c24 40 28 44 28 29z
m2053 -217 c20 -66 39 -129 42 -140 3 -10 -8 7 -24 38 -48 89 -95 269 -61 231
4 -4 24 -62 43 -129z m-956 74 c-3 -8 -6 -5 -6 6 -1 11 2 17 5 13 3 -3 4 -12
1 -19z m309 10 c4 -6 3 -8 -4 -4 -5 3 -19 -6 -30 -21 -11 -16 -23 -26 -26 -23
-5 6 40 60 49 60 2 0 7 -5 11 -12z m-633 -74 c14 -5 13 -8 -1 -23 -17 -17 -42
-17 -42 0 0 4 8 5 17 2 12 -5 15 -2 10 10 -7 19 -6 20 16 11z m27 -34 c-8 -5
-19 -10 -25 -10 -5 0 -3 5 5 10 8 5 20 10 25 10 6 0 3 -5 -5 -10z m616 -19
c-10 -16 -74 -41 -103 -40 -22 0 -17 3 20 13 27 7 53 18 60 25 13 13 31 15 23
2z m-374 -28 c-18 -32 -82 -88 -82 -72 0 9 10 21 23 28 13 7 32 26 41 42 19
32 35 34 18 2z m-1590 -11 c41 -41 -10 -87 -109 -97 l-48 -5 48 14 c83 25 110
50 88 85 -13 21 -95 17 -157 -7 -35 -13 -57 -16 -68 -10 -19 11 -22 30 -3 23
6 -3 41 2 77 10 82 18 146 14 172 -13z m-1213 -27 c-19 -14 -42 -35 -51 -48
-9 -12 -19 -19 -23 -16 -7 8 81 89 97 89 6 0 -4 -11 -23 -25z m2932 -47 c-17
-29 -42 -66 -56 -83 -16 -18 -10 -6 13 32 21 33 45 76 52 94 8 18 15 28 17 22
2 -6 -10 -35 -26 -65z m-3045 -13 c-19 -14 -36 -12 -36 6 0 5 12 9 28 9 26 -1
26 -1 8 -15z m26 -24 c-8 -4 -14 -12 -14 -17 -1 -5 -7 -22 -13 -39 -27 -65
-39 -143 -27 -183 6 -20 13 -62 15 -92 l4 -55 -21 45 c-16 35 -21 65 -21 139
0 67 4 96 13 99 6 2 10 8 6 13 -3 5 3 24 13 41 26 48 34 58 47 58 7 0 6 -4 -2
-9z m2783 -31 c-11 -34 -74 -99 -116 -121 -38 -19 -113 -25 -136 -11 -6 4 11
8 38 9 82 4 209 89 209 140 0 9 3 14 6 10 3 -3 3 -15 -1 -27z m-3203 -25 c3
-13 1 -22 -3 -19 -9 5 -13 44 -5 44 2 0 6 -11 8 -25z m-22 5 c0 -5 -2 -10 -4
-10 -3 0 -8 5 -11 10 -3 6 -1 10 4 10 6 0 11 -4 11 -10z m1654 -112 c-8 -23
-24 -53 -36 -65 -24 -26 -19 -40 9 -25 11 6 25 7 33 2 17 -10 14 -12 -60 -30
-45 -12 -104 -56 -94 -72 3 -4 45 -8 95 -8 56 0 89 -4 89 -11 0 -9 -143 -7
-201 3 -32 5 6 73 51 90 12 4 -5 89 -21 100 -10 6 -5 8 16 6 28 -3 30 -5 27
-43 l-3 -40 36 40 c20 22 43 52 51 68 21 40 25 33 8 -15z m-1358 -66 c0 -81 5
-108 27 -163 32 -79 33 -84 7 -102 -11 -8 -17 -17 -12 -22 4 -5 1 -5 -5 -1
-10 5 -10 11 -1 25 8 14 5 32 -16 84 -29 72 -34 156 -15 233 6 24 12 44 13 44
0 0 1 -44 2 -98z m-202 63 c-5 -12 2 -15 28 -15 22 0 42 -7 53 -20 21 -24 11
-27 -12 -4 -12 12 -27 14 -60 9 l-44 -6 16 25 c19 29 27 34 19 11z m-184 -69
c0 -11 -44 4 -51 17 -8 14 -6 14 21 1 16 -9 30 -17 30 -18z m30 -13 c0 -32 -9
-25 -16 12 -3 17 -1 24 6 20 5 -3 10 -18 10 -32z m1272 19 c-1 -7 -7 -44 -12
-83 -6 -39 -15 -79 -20 -90 -13 -24 -52 -34 -78 -20 -12 6 -31 11 -43 11 -12
0 -19 3 -15 7 3 4 28 6 55 4 57 -3 58 -1 67 100 l7 69 -57 0 c-53 0 -56 -1
-57 -25 -1 -14 -2 -30 -3 -35 -1 -6 10 -16 23 -23 14 -7 26 -18 29 -24 5 -18
-26 -16 -45 3 -14 14 -19 12 -52 -19 -36 -35 -58 -49 -105 -67 -39 -14 -31 -5
18 24 25 14 54 40 66 56 l22 30 -34 14 c-18 7 -42 16 -52 20 -38 13 -8 15 41
2 49 -13 51 -13 57 8 3 11 6 24 6 29 0 4 -35 8 -77 9 -53 1 -33 4 62 8 195 7
200 7 197 -8z m-1367 -12 c10 -11 16 -20 13 -20 -3 0 -13 9 -23 20 -10 11 -16
20 -13 20 3 0 13 -9 23 -20z m2752 4 c-3 -3 -12 -4 -19 -1 -8 3 -5 6 6 6 11 1
17 -2 13 -5z m583 -9 c-14 -8 -29 -14 -35 -14 -5 0 1 6 15 14 14 8 30 14 35
14 6 0 -1 -6 -15 -14z m-3285 -15 c3 -5 -1 -10 -10 -10 -9 0 -13 5 -10 10 3 6
8 10 10 10 2 0 7 -4 10 -10z m174 -19 c-16 -16 -29 -38 -29 -50 0 -26 -26 -51
-53 -51 -21 1 -20 2 4 15 14 8 32 29 39 47 16 40 39 68 56 68 7 0 -1 -13 -17
-29z m2978 13 c-3 -3 -12 -4 -19 -1 -8 3 -5 6 6 6 11 1 17 -2 13 -5z m-3097
-88 c0 -3 -4 -8 -10 -11 -5 -3 -10 -1 -10 4 0 6 5 11 10 11 6 0 10 -2 10 -4z
m2233 -11 c58 -9 34 -26 -28 -19 -42 5 -60 3 -80 -10 -26 -17 -26 -17 -15 4
12 23 47 40 70 35 8 -2 32 -6 53 -10z m-758 -33 c-52 -87 -245 -319 -245 -294
0 7 32 47 71 89 39 42 95 111 126 154 54 78 79 105 48 51z m-1679 -97 c-37
-34 -44 -31 -10 5 16 16 30 27 33 25 2 -3 -8 -16 -23 -30z m1207 -113 c15 -16
15 -20 -3 -47 -11 -17 -20 -43 -20 -60 l0 -30 26 30 c14 17 23 23 20 15 -2 -8
-10 -32 -17 -52 -13 -42 -20 -46 -39 -23 -9 11 -10 32 -6 73 4 31 8 69 9 85 2
32 8 34 30 9z m222 -20 c-6 -6 -91 -31 -108 -32 -5 0 -5 5 -2 10 3 6 -3 10
-14 10 -12 0 -21 5 -21 11 0 6 8 9 18 7 9 -3 38 -2 62 2 46 6 76 2 65 -8z
m-959 -57 c-3 -9 -13 -44 -22 -78 -9 -34 -18 -64 -21 -67 -10 -9 5 105 18 133
13 28 36 39 25 12z m378 -19 c-21 -15 -30 -14 -19 3 3 6 14 11 23 11 13 0 13
-2 -4 -14z m79 -15 c-18 -16 -33 -34 -33 -40 0 -7 -4 -9 -10 -6 -5 3 -10 0
-10 -8 0 -8 -10 -22 -21 -33 -21 -18 -21 -17 2 24 13 24 40 55 59 68 47 32 52
30 13 -5z m392 -31 c17 -3 39 -5 50 -5 62 4 65 5 66 28 1 17 3 16 8 -8 4 -16
6 -33 4 -37 -7 -13 -102 -9 -138 6 -29 12 -35 20 -34 43 1 28 1 28 8 3 5 -17
16 -26 36 -30z m-3673 10 c67 -16 133 -30 146 -30 13 0 21 -4 18 -8 -2 -4 7
-8 22 -7 15 0 27 -5 27 -11 0 -6 18 -32 40 -58 76 -90 115 -121 115 -90 0 22
-69 134 -82 134 -6 0 -9 2 -6 5 11 12 88 -8 93 -24 2 -9 25 -38 50 -64 41 -44
46 -47 61 -33 15 16 34 20 64 16 12 -1 12 1 3 11 -10 10 -7 15 13 26 15 7 30
10 35 7 5 -3 9 0 9 7 0 7 2 10 5 7 8 -8 -61 -145 -100 -200 -18 -26 -35 -53
-37 -59 -2 -7 -58 3 -168 29 -91 22 -182 44 -203 48 -26 4 -35 9 -26 15 10 6
9 12 -7 26 -11 10 -30 35 -43 56 -13 21 -28 43 -35 50 -7 6 -26 32 -44 57 -17
25 -46 62 -63 83 -17 20 -26 37 -21 37 6 0 66 -13 134 -30z m3039 -78 c-5 -10
-32 -36 -58 -57 l-48 -39 55 60 c56 61 70 71 51 36z m-521 -22 c-11 -23 -18
-46 -14 -52 4 -7 3 -8 -4 -4 -19 11 -14 54 8 76 30 30 33 24 10 -20z m3288 5
c15 -17 17 -25 9 -25 -8 0 -19 11 -25 25 -6 14 -10 25 -9 25 2 0 13 -11 25
-25z m-3720 7 c-9 -23 -102 -181 -118 -202 l-20 -25 0 27 c0 32 -29 82 -49 86
-8 2 -11 -3 -8 -12 4 -9 1 -15 -5 -13 -7 1 -12 -2 -13 -8 -2 -21 -29 -85 -36
-85 -8 0 -32 -64 -34 -92 -1 -10 2 -18 7 -18 4 0 8 -6 8 -13 0 -8 9 -22 19
-31 10 -10 21 -26 24 -37 7 -26 -2 -24 -13 4 -7 17 -9 18 -9 5 -1 -10 -5 -18
-11 -18 -5 0 -10 -9 -10 -20 0 -11 5 -20 10 -20 6 0 10 -11 10 -24 0 -18 -5
-23 -17 -20 -11 2 -25 -6 -37 -22 -19 -26 -19 -26 4 -19 15 5 20 4 16 -4 -4
-6 -18 -11 -32 -11 -14 0 -22 4 -19 10 4 6 -1 7 -12 3 -14 -6 -13 -9 12 -19
17 -7 39 -11 50 -8 18 4 18 4 2 -6 -14 -9 -38 -1 -122 36 l-104 48 37 23 c20
12 44 23 53 23 9 0 34 40 66 108 29 59 77 146 109 194 56 85 58 87 143 127 88
41 105 47 99 33z m-1525 -29 c-7 -2 -21 -2 -30 0 -10 3 -4 5 12 5 17 0 24 -2
18 -5z m3037 -93 c0 -5 -4 -10 -8 -10 -4 0 -16 -13 -25 -30 -10 -16 -14 -30
-9 -30 5 0 7 -24 4 -54 l-4 -54 27 6 c23 4 26 8 21 33 -3 15 -3 50 1 78 4 38
10 51 22 51 14 0 16 -11 13 -76 -3 -70 -1 -76 15 -70 28 11 79 20 72 12 -3 -3
-44 -19 -90 -34 -47 -16 -83 -34 -81 -40 3 -15 -35 -16 -40 -1 -3 8 -21 7 -66
-1 -49 -10 -65 -10 -77 0 -8 7 -15 17 -15 23 0 7 4 7 12 -1 15 -15 61 -15 111
-1 34 9 37 13 37 44 0 39 -3 51 -10 48 -3 -1 -13 -5 -23 -9 -12 -4 -8 5 13 27
17 19 36 49 42 67 9 23 18 32 35 32 13 0 23 -4 23 -10z m164 -6 c3 -9 6 -28 7
-42 1 -26 1 -26 11 6 7 21 17 32 30 32 14 0 16 -4 9 -17 -5 -10 -13 -36 -18
-58 -6 -22 -13 -47 -17 -56 -5 -12 3 -22 30 -38 29 -17 34 -25 25 -34 -10 -9
-16 -7 -28 11 -22 32 -33 27 -34 -15 l-1 -38 -10 35 c-5 19 -11 36 -12 38 -2
1 -23 -6 -47 -17 -24 -10 -60 -22 -79 -25 -27 -5 -21 -1 23 18 71 30 100 54
94 78 -3 10 -1 20 4 23 4 3 5 13 2 21 -5 15 -7 15 -15 0 -13 -24 -24 -20 -38
14 -13 31 -34 40 -43 18 -3 -7 -6 -8 -6 -3 0 6 4 17 9 25 8 12 13 11 39 -8 17
-12 33 -22 36 -22 3 0 5 16 5 35 0 36 13 47 24 19z m-3794 -40 c0 -2 -11 -4
-25 -4 -14 0 -25 4 -25 9 0 4 11 6 25 3 14 -2 25 -6 25 -8z m1037 0 c-3 -3
-12 -4 -19 -1 -8 3 -5 6 6 6 11 1 17 -2 13 -5z m3702 -119 c-1 -11 -7 5 -14
35 -8 30 -14 64 -14 75 1 11 7 -5 14 -35 8 -30 14 -64 14 -75z m-4664 105 c14
-7 8 -8 -20 -3 -22 3 -42 7 -44 9 -9 8 45 2 64 -6z m1055 -12 c18 -5 13 -6
-15 -2 -22 3 -47 10 -55 15 -16 10 24 3 70 -13z m732 -90 c-8 -8 -9 -4 -5 13
4 13 8 18 11 10 2 -7 -1 -18 -6 -23z m1628 27 c0 -2 -32 -14 -71 -25 -67 -20
-73 -21 -88 -5 -15 16 -15 17 4 12 11 -3 47 0 80 7 73 17 75 17 75 11z m2661
-27 c48 -52 153 -215 193 -303 40 -87 42 -133 7 -176 l-17 -21 -28 32 -27 33
30 31 c17 18 31 38 31 45 0 22 -69 170 -104 224 -19 29 -55 78 -81 110 -51 62
-53 77 -4 25z m-765 6 c18 -14 18 -14 -6 -3 -31 14 -36 19 -24 19 6 0 19 -7
30 -16z m-619 -116 c-3 -8 -6 -5 -6 6 -1 11 2 17 5 13 3 -3 4 -12 1 -19z
m-2811 -34 c18 -14 18 -14 -6 -3 -31 14 -36 19 -24 19 6 0 19 -7 30 -16z m-29
-27 c0 -7 -9 -13 -19 -13 -18 0 -18 1 -2 13 10 7 18 13 19 13 1 0 2 -6 2 -13z
m78 -7 c3 -6 -1 -7 -9 -4 -18 7 -21 14 -7 14 6 0 13 -4 16 -10z m1830 -60 c4
-6 -6 -10 -24 -10 -64 0 -131 -44 -131 -87 0 -27 30 -48 83 -57 52 -10 48 -30
-5 -23 -47 6 -87 32 -99 64 -9 25 11 57 55 84 l31 20 -40 -7 c-22 -4 -62 -13
-90 -20 -32 -8 -56 -9 -67 -3 -28 15 -21 25 15 22 17 -2 73 3 122 11 111 17
142 19 150 6z m-1635 -69 c36 -25 67 -48 70 -51 3 -4 13 -9 22 -13 9 -3 24
-22 33 -41 10 -20 22 -36 27 -36 6 0 8 -6 5 -14 -3 -7 5 -23 19 -35 25 -21 36
-7 12 17 -9 9 -9 12 1 12 9 0 8 5 -4 16 -28 29 -9 26 46 -7 114 -69 148 -91
158 -103 9 -10 4 -29 -19 -75 l-31 -62 -106 56 c-106 56 -166 94 -131 82 17
-6 31 6 34 31 2 8 -3 11 -12 8 -32 -13 -48 -16 -26 -5 22 12 29 33 14 43 -4 2
-23 34 -40 69 -22 43 -46 74 -70 90 -43 29 -104 82 -82 71 8 -5 44 -28 80 -53z
m2360 14 c11 -13 10 -14 -4 -9 -9 3 -16 10 -16 15 0 13 6 11 20 -6z m351 -82
c13 -16 12 -17 -3 -4 -10 7 -18 15 -18 17 0 8 8 3 21 -13z m-991 -116 c0 -15
8 -44 19 -65 10 -20 19 -50 19 -66 0 -17 7 -36 18 -44 17 -13 17 -14 2 -9 -11
4 -18 1 -19 -6 0 -7 -5 -1 -10 12 -5 13 -7 26 -5 28 3 3 -6 15 -19 27 -22 19
-25 31 -30 136 -5 113 -5 114 10 65 8 -27 15 -63 15 -78z m991 76 c12 -16 12
-17 -1 -7 -8 6 -22 14 -30 17 -13 5 -12 6 1 6 9 1 23 -7 30 -16z m-4 -51 c-12
-2 -16 -9 -13 -19 4 -10 1 -13 -13 -8 -11 3 -26 -1 -35 -10 -9 -9 -16 -12 -16
-5 0 6 11 16 25 22 14 6 25 15 25 20 0 5 -5 6 -12 2 -6 -4 -8 -3 -5 3 4 6 19
8 34 5 21 -4 23 -7 10 -10z m741 -34 c-33 -87 -38 -97 -32 -63 7 35 40 115 48
115 3 0 -4 -24 -16 -52z m2366 -53 c29 -54 20 -44 -32 38 -19 29 -25 43 -14
32 11 -11 32 -42 46 -70z m-3057 52 c10 -13 32 -29 48 -36 17 -6 21 -10 10 -8
-20 4 -26 0 -55 -38 -12 -15 -12 -17 -1 -10 11 6 13 4 8 -8 -3 -9 -2 -19 3
-22 5 -3 11 3 15 14 3 11 12 22 20 25 9 3 12 0 9 -8 -3 -7 2 -20 11 -29 9 -10
11 -18 5 -22 -5 -3 -10 -1 -10 4 0 17 -18 13 -39 -8 -21 -21 -33 -18 -24 5 3
8 0 14 -6 14 -6 0 -11 -7 -11 -15 0 -8 -7 -15 -16 -15 -12 0 -15 7 -12 25 3
14 2 25 -3 25 -4 0 -9 -14 -11 -32 -2 -17 -9 -33 -16 -34 -7 -1 -8 0 -2 3 11
5 13 43 3 69 -6 16 -7 16 -14 -2 -7 -17 -8 -17 -8 -1 -1 25 -21 21 -22 -5 -1
-19 -2 -20 -6 -4 -3 10 0 23 6 29 7 7 7 16 0 29 -8 15 -6 18 12 18 17 0 19 3
10 14 -16 19 5 32 24 16 11 -10 15 -10 15 -1 0 7 4 10 8 7 4 -2 14 0 22 6 12
8 12 9 -2 4 -10 -3 -20 -1 -23 4 -13 21 35 9 52 -13z m-2337 -28 c-7 -11 -14
-18 -17 -15 -3 3 0 12 7 21 18 21 23 19 10 -6z m2477 -45 c-3 -3 -12 -4 -19
-1 -8 3 -5 6 6 6 11 1 17 -2 13 -5z m-1515 -73 c-2 -24 2 -48 9 -57 11 -13 17
-11 47 18 l34 33 -16 -32 c-9 -18 -16 -39 -16 -48 0 -17 -13 -19 -40 -5 -27
15 -41 44 -49 106 -8 53 -7 54 13 40 17 -11 20 -22 18 -55z m1468 65 c0 -3 -4
-8 -10 -11 -5 -3 -10 -1 -10 4 0 6 5 11 10 11 6 0 10 -2 10 -4z m147 -12 c-3
-3 -12 -4 -19 -1 -8 3 -5 6 6 6 11 1 17 -2 13 -5z m-870 -10 c-3 -3 -12 -4
-19 -1 -8 3 -5 6 6 6 11 1 17 -2 13 -5z m972 -10 c9 -8 -45 -2 -64 6 -14 7 -8
8 20 3 22 -3 42 -7 44 -9z m302 -49 c-6 -24 -11 -65 -11 -90 0 -31 -4 -44 -11
-39 -7 4 -9 0 -6 -12 3 -11 8 -66 11 -124 l5 -105 -14 70 c-8 39 -14 90 -15
115 0 47 42 259 48 240 2 -6 -1 -31 -7 -55z m-1773 22 c12 -11 22 -31 22 -44
0 -21 -4 -23 -45 -21 -43 1 -45 17 -2 18 25 0 21 27 -10 56 -20 19 -22 23 -7
18 10 -4 29 -16 42 -27z m4256 -67 c5 -28 2 -25 -13 15 -32 86 -33 91 -13 55
11 -19 22 -51 26 -70z m-2999 80 c-28 -12 -37 -12 -30 0 3 6 16 10 28 9 21 0
21 -1 2 -9z m285 -8 c3 -3 -10 -2 -27 1 -22 4 -32 3 -30 -5 1 -6 -5 -13 -13
-15 -13 -4 -13 -3 0 6 12 9 11 11 -8 11 -13 0 -21 -4 -18 -9 3 -5 -12 -11 -35
-15 -22 -4 -37 -11 -34 -16 3 -6 1 -10 -4 -10 -6 0 -11 6 -11 14 0 8 -6 17
-12 20 -7 3 1 3 19 0 22 -4 34 -1 40 10 12 21 113 28 133 8z m-140 -2 c0 -5
-5 -10 -11 -10 -5 0 -7 5 -4 10 3 6 8 10 11 10 2 0 4 -4 4 -10z m-1145 -40
c-66 -22 -124 -39 -130 -39 -15 1 218 78 235 78 8 0 -39 -18 -105 -39z m1042
24 c-3 -3 -12 -4 -19 -1 -8 3 -5 6 6 6 11 1 17 -2 13 -5z m-63 -16 c-3 -4 0
-8 7 -8 7 0 10 -2 8 -5 -3 -2 -15 -2 -27 2 -24 6 -22 20 2 20 8 0 13 -4 10 -9z
m110 -30 c-7 -11 4 -10 28 3 27 14 53 18 170 26 l97 6 7 -27 c8 -34 20 -33 32
2 l10 27 1 -25 1 -25 19 24 c18 23 18 23 5 -39 -7 -35 -19 -67 -26 -72 -32
-22 -247 19 -231 44 3 7 1 8 -6 4 -6 -4 -36 4 -67 18 -30 14 -70 28 -88 31
-19 4 -33 13 -33 21 0 12 4 12 23 -1 13 -8 31 -14 41 -14 16 1 16 2 1 6 -10 2
-15 10 -11 19 4 12 7 12 18 -3 7 -10 11 -21 9 -25z m326 28 c0 -3 -4 -8 -10
-11 -5 -3 -10 -1 -10 4 0 6 5 11 10 11 6 0 10 -2 10 -4z m-1673 -92 c-3 -3
-12 -4 -19 -1 -8 3 -5 6 6 6 11 1 17 -2 13 -5z m3851 -22 c2 -12 -1 -22 -6
-22 -15 0 -34 28 -27 40 10 17 30 6 33 -18z m35 -39 c-13 -10 -14 -13 -2 -13
10 -1 9 -4 -4 -11 -29 -17 -35 0 -8 22 17 14 19 19 7 19 -9 0 -16 7 -16 15 0
12 3 12 20 -3 19 -16 19 -18 3 -29z m-3743 9 c0 -5 -7 -17 -16 -28 -8 -10 -14
-14 -11 -9 2 6 7 18 10 28 7 17 17 23 17 9z m4137 -114 c-2 -18 -4 -6 -4 27 0
33 2 48 4 33 2 -15 2 -42 0 -60z m-4652 43 c-6 -5 -68 -30 -140 -56 -257 -94
-363 -138 -540 -226 -237 -117 -315 -168 -395 -261 -53 -61 -119 -114 -173
-137 -26 -10 74 122 164 216 48 52 60 59 269 155 345 159 866 357 815 309z
m4447 -43 c-9 -9 -12 -7 -12 12 0 19 3 21 12 12 9 -9 9 -15 0 -24z m-4218 4
c94 16 103 1 26 -46 -33 -20 -60 -38 -60 -40 0 -1 27 0 60 2 67 5 110 -14 110
-48 0 -43 -116 -83 -168 -58 -34 16 -34 30 -1 42 19 6 35 4 63 -9 35 -17 37
-17 56 0 63 57 -41 88 -136 40 -27 -14 -52 -25 -56 -25 -22 0 0 24 67 72 41
29 75 56 75 60 0 4 -21 1 -47 -7 -47 -14 -83 -7 -83 17 0 7 4 7 13 0 9 -8 32
-8 81 0z m4241 -117 c-6 -53 -52 -130 -104 -177 -25 -22 -63 -57 -84 -76 l-38
-35 -37 17 c-20 9 -48 26 -62 37 l-25 20 32 -15 c44 -22 63 -20 58 3 -3 16 2
19 28 19 39 -1 75 39 120 134 18 37 38 68 45 68 6 0 12 5 12 11 0 6 6 9 14 6
8 -3 20 1 26 9 18 21 20 18 15 -21z m-2328 -17 c-3 -8 -6 -5 -6 6 -1 11 2 17
5 13 3 -3 4 -12 1 -19z m-113 -119 c2 -19 1 -25 -1 -14 -3 11 -9 24 -14 30 -5
5 -9 16 -9 24 0 29 21 -5 24 -40z m2522 -1 c-17 -26 -26 -33 -113 -88 -58 -37
-63 -42 -64 -77 l-2 -38 -6 35 -7 35 -17 -55 c-10 -30 -26 -71 -37 -90 l-19
-35 0 55 c-1 61 7 102 19 95 4 -2 22 18 39 45 32 49 52 68 31 31 -18 -34 -11
-34 26 -1 20 17 48 37 63 43 27 12 29 14 71 47 32 25 34 25 16 -2z m-2509
-125 c-2 -16 -4 -3 -4 27 0 30 2 43 4 28 2 -16 2 -40 0 -55z m2229 -70 c-11
-11 -17 4 -9 23 7 18 8 18 11 1 2 -10 1 -21 -2 -24z m-6096 -46 c0 -2 -12 -14
-27 -28 l-28 -24 24 28 c23 25 31 32 31 24z m2144 -96 c-15 -25 -20 -27 -36
-18 -25 16 -23 21 15 34 17 5 33 11 35 12 2 0 -5 -12 -14 -28z m-2194 -4 c0
-2 -10 -12 -22 -23 l-23 -19 19 23 c18 21 26 27 26 19z m1237 -13 c-3 -3 -12
-4 -19 -1 -8 3 -5 6 6 6 11 1 17 -2 13 -5z m4623 -624 c-12 -17 -29 -34 -39
-39 -22 -12 -103 -12 -95 0 3 5 18 9 33 9 15 0 46 13 67 29 50 38 61 38 34 1z
m-2894 -122 l29 -33 -32 29 c-31 28 -38 36 -30 36 2 0 16 -15 33 -32z m1698
-56 c6 -42 -27 -122 -50 -122 -8 0 -14 -3 -14 -7 0 -5 -9 -19 -20 -33 -18 -24
-18 -22 2 40 12 36 24 72 28 80 4 9 14 42 21 75 12 52 14 56 20 31 4 -15 10
-43 13 -64z m525 -81 c39 -36 41 -40 22 -46 -23 -7 -44 2 -36 15 3 4 -3 7 -13
6 -12 -1 -17 6 -16 21 1 13 -3 20 -7 17 -5 -3 -7 -10 -4 -15 8 -12 1 -11 -29
3 -24 10 -24 12 -8 24 28 21 46 16 91 -25z m-244 -109 c-3 -3 -11 0 -18 7 -9
10 -8 11 6 5 10 -3 15 -9 12 -12z m72 12 c-3 -3 -12 -4 -19 -1 -8 3 -5 6 6 6
11 1 17 -2 13 -5z m88 -14 c13 -6 5 -7 -25 -3 -25 3 -47 7 -49 9 -9 8 55 2 74
-6z m-5958 -32 c-3 -7 -5 -2 -5 12 0 14 2 19 5 13 2 -7 2 -19 0 -25z m3619
-60 c-2 -10 -1 -16 3 -14 9 6 61 -152 60 -180 0 -16 -27 67 -29 89 0 5 -4 6
-9 3 -5 -4 -7 4 -4 16 3 13 2 19 -2 15 -14 -12 -15 -67 -1 -64 7 1 10 -17 9
-58 -2 -33 -3 -87 -4 -120 l-1 -60 -8 54 c-5 31 -4 65 1 78 12 33 11 37 -5 24
-29 -24 -37 12 -35 160 1 136 2 142 15 109 8 -19 13 -43 10 -52z m2251 76 c-3
-3 -12 -4 -19 -1 -8 3 -5 6 6 6 11 1 17 -2 13 -5z m46 -11 c-7 -2 -19 -2 -25
0 -7 3 -2 5 12 5 14 0 19 -2 13 -5z m-6493 -17 c0 -2 -8 -10 -17 -17 -16 -13
-17 -12 -4 4 13 16 21 21 21 13z m577 -38 c-3 -7 -5 -2 -5 12 0 14 2 19 5 13
2 -7 2 -19 0 -25z m3726 -71 c-3 -15 -2 -35 2 -44 5 -10 9 -22 11 -28 1 -5 5
-19 9 -30 6 -19 6 -19 -5 -2 -7 11 -13 24 -15 30 -1 7 -5 19 -8 27 -12 31 -14
69 -4 63 7 -4 8 1 3 13 -15 36 -17 59 -3 28 8 -17 13 -43 10 -57z m2207 23
c-8 -5 -19 -10 -25 -10 -5 0 -3 5 5 10 8 5 20 10 25 10 6 0 3 -5 -5 -10z m65
0 c-3 -5 -12 -10 -18 -10 -7 0 -6 4 3 10 19 12 23 12 15 0z m-2207 -25 c-3
-14 -1 -28 3 -31 5 -3 9 -11 9 -17 0 -7 -7 -4 -14 6 -12 15 -11 67 1 67 3 0 3
-11 1 -25z m2097 5 c-3 -5 -12 -10 -18 -10 -7 0 -30 -9 -50 -19 -34 -17 -36
-20 -17 -26 27 -8 21 -29 -9 -33 -14 -2 -21 0 -17 7 4 5 14 8 24 5 14 -5 14
-4 2 4 -8 6 -18 8 -22 6 -4 -3 -8 2 -8 11 0 9 10 19 22 23 21 5 21 6 2 14 -14
6 -12 7 9 3 15 -3 27 -1 27 4 0 8 12 13 53 20 5 0 5 -3 2 -9z m67 -12 c-15
-18 -77 -54 -68 -39 9 13 -4 14 -24 1 -13 -9 -13 -10 0 -10 13 0 13 -1 0 -10
-21 -14 -27 -12 -27 6 0 9 12 20 26 26 14 5 37 15 51 21 14 5 28 10 33 9 4 -1
7 3 7 10 0 6 3 8 6 5 4 -4 2 -12 -4 -19z m-2202 -9 c0 -6 -4 -7 -10 -4 -5 3
-10 11 -10 16 0 6 5 7 10 4 6 -3 10 -11 10 -16z m-53 -31 c-3 -8 -6 -5 -6 6
-1 11 2 17 5 13 3 -3 4 -12 1 -19z m-122 -99 c-3 -4 -1 -10 5 -14 5 -3 11 -16
11 -28 1 -17 2 -18 6 -4 2 9 9 17 14 17 12 0 11 -12 -5 -32 -12 -16 -14 -16
-25 9 -7 14 -14 53 -16 87 -3 58 -3 59 5 17 5 -24 7 -47 5 -52z m2167 67 c3
-13 0 -32 -5 -42 -8 -14 -7 -16 9 -10 14 5 16 4 7 -4 -8 -9 -16 -9 -30 -1 -10
6 -13 11 -6 11 7 0 10 12 7 35 -5 39 11 49 18 11z m-2012 -60 c-1 -6 -7 4 -15
23 -8 18 -15 38 -15 45 1 6 7 -4 15 -23 8 -18 15 -38 15 -45z m-220 23 c0 -10
4 -19 8 -19 5 0 17 -17 28 -37 10 -21 24 -41 29 -45 6 -4 6 -8 2 -8 -4 0 -2
-10 4 -22 11 -20 10 -21 -3 -11 -8 7 -20 31 -27 53 -6 21 -20 45 -30 52 -19
14 -40 75 -21 63 5 -3 10 -15 10 -26z m2210 27 c0 -3 -4 -8 -10 -11 -5 -3 -10
-1 -10 4 0 6 5 11 10 11 6 0 10 -2 10 -4z m153 -36 c-3 -12 -8 -18 -11 -15 -3
2 -12 -1 -21 -7 -9 -7 -5 0 8 15 29 32 31 33 24 7z m-2388 0 c3 -5 1 -10 -4
-10 -6 0 -11 5 -11 10 0 6 2 10 4 10 3 0 8 -4 11 -10z m219 -22 c-3 -13 -6
-59 -6 -103 0 -74 -1 -77 -8 -30 -4 28 -10 68 -14 90 -4 29 -4 34 3 20 8 -17
10 -16 10 13 1 17 5 32 10 32 6 0 7 -10 5 -22z m35 -48 c0 -10 -3 -8 -9 5 -12
27 -12 43 0 25 5 -8 9 -22 9 -30z m2191 16 c0 -7 -40 -14 -44 -7 -3 4 6 8 20
9 13 1 24 0 24 -2z m-2433 -38 c-3 -7 -5 -2 -5 12 0 14 2 19 5 13 2 -7 2 -19
0 -25z m63 -68 c27 -52 25 -75 -11 -193 -23 -76 -45 -122 -89 -186 -62 -93
-155 -215 -208 -276 l-34 -38 -21 22 -21 21 29 0 c31 0 29 -2 96 107 14 24 29
40 34 35 4 -4 5 -1 1 5 -4 7 -3 28 3 48 5 19 6 33 3 32 -11 -3 -62 45 -56 54
8 13 -17 22 -29 10 -9 -9 -7 -11 8 -6 15 5 16 4 5 -3 -19 -12 -100 -26 -100
-17 0 4 9 18 20 32 11 14 20 30 20 34 0 14 -28 11 -33 -3 -2 -7 -8 -10 -12 -6
-7 7 -9 61 -5 158 l1 35 17 -25 c9 -14 27 -35 39 -48 22 -22 23 -22 65 -5 48
20 74 38 101 70 18 20 18 22 -6 44 -13 13 -33 29 -43 36 -17 10 -14 12 19 12
36 1 122 34 133 52 11 18 24 8 33 -23 8 -27 9 -24 4 21 -7 63 5 63 37 1z
m-215 10 c-3 -5 -14 -10 -23 -10 -15 0 -15 2 -2 10 20 13 33 13 25 0z m-543
-7 c-6 -2 -9 -10 -6 -15 4 -7 2 -8 -5 -4 -13 9 -5 26 12 25 9 0 8 -2 -1 -6z
m78 -3 c0 -5 -7 -10 -15 -10 -8 0 -15 5 -15 10 0 6 7 10 15 10 8 0 15 -4 15
-10z m-15 -40 c3 -6 -1 -7 -9 -4 -18 7 -21 14 -7 14 6 0 13 -4 16 -10z m773
-163 l-2 -82 -3 78 c-2 43 -8 77 -14 77 -6 0 -7 5 -4 10 16 25 25 -8 23 -83z
m-941 41 c-3 -8 -6 -5 -6 6 -1 11 2 17 5 13 3 -3 4 -12 1 -19z m917 -10 c-3
-18 -9 -55 -14 -83 -10 -63 -12 -28 -4 54 4 33 11 61 16 61 4 0 6 -15 2 -32z
m-884 -53 c11 -13 10 -14 -4 -9 -9 3 -16 10 -16 15 0 13 6 11 20 -6z m-165
-115 c3 -5 1 -10 -4 -10 -6 0 -11 5 -11 10 0 6 2 10 4 10 3 0 8 -4 11 -10z
m4080 -190 c-21 -22 -40 -38 -43 -36 -4 4 69 75 78 76 2 0 -13 -18 -35 -40z
m-6705 -13 c0 -2 -12 -14 -27 -28 l-28 -24 24 28 c23 25 31 32 31 24z m6650
-30 c0 -2 -15 -16 -32 -33 l-33 -29 29 33 c28 30 36 37 36 29z m-6611 -61 c-3
-3 -11 5 -18 17 -13 21 -12 21 5 5 10 -10 16 -20 13 -22z m41 10 c0 -2 -7 -7
-16 -10 -8 -3 -12 -2 -9 4 6 10 25 14 25 6z m120 -16 c18 -12 2 -12 -25 0 -13
6 -15 9 -5 9 8 0 22 -4 30 -9z m-177 -35 c-3 -9 -8 -14 -10 -11 -3 3 -2 9 2
15 9 16 15 13 8 -4z m197 -15 c8 -5 11 -10 5 -10 -5 0 -17 5 -25 10 -8 5 -10
10 -5 10 6 0 17 -5 25 -10z m-349 -23 c-10 -9 -11 -8 -5 6 3 10 9 15 12 12 3
-3 0 -11 -7 -18z m99 -31 c0 -2 -8 -10 -17 -17 -16 -13 -17 -12 -4 4 13 16 21
21 21 13z m-36 -32 c3 -8 2 -12 -4 -9 -6 3 -10 10 -10 16 0 14 7 11 14 -7z
m6456 2 c0 -2 -8 -10 -17 -17 -16 -13 -17 -12 -4 4 13 16 21 21 21 13z m-6385
-76 c3 -5 1 -10 -4 -10 -6 0 -11 5 -11 10 0 6 2 10 4 10 3 0 8 -4 11 -10z
m-144 -23 c-10 -9 -11 -8 -5 6 3 10 9 15 12 12 3 -3 0 -11 -7 -18z m222 6 c-7
-2 -19 -2 -25 0 -7 3 -2 5 12 5 14 0 19 -2 13 -5z m4432 -33 c13 -6 15 -9 5
-9 -8 0 -22 4 -30 9 -18 12 -2 12 25 0z m16 -30 c15 0 19 -7 19 -30 0 -27 -2
-29 -18 -21 -13 7 -22 7 -29 0 -7 -7 -12 1 -15 26 -3 27 -1 34 10 30 7 -3 22
-5 33 -5z m-4711 -25 c-7 -8 -17 -15 -23 -15 -6 0 -2 7 9 15 25 19 30 19 14 0z
m-36 -21 c3 -8 2 -12 -4 -9 -6 3 -10 10 -10 16 0 14 7 11 14 -7z m-47 -26 c-3
-7 -5 -2 -5 12 0 14 2 19 5 13 2 -7 2 -19 0 -25z m4801 -14 c-4 -3 -12 5 -18
18 -12 22 -12 22 6 6 10 -10 15 -20 12 -24z m-4773 -4 c-10 -11 -23 -20 -28
-20 -6 0 0 9 13 20 13 11 25 20 28 20 3 0 -3 -9 -13 -20z m105 16 c0 -2 -7 -7
-16 -10 -8 -3 -12 -2 -9 4 6 10 25 14 25 6z m4659 -61 c0 -11 -6 -2 -14 20
-18 50 -18 57 0 25 8 -14 14 -34 14 -45z m-4624 37 c-3 -3 -11 0 -18 7 -9 10
-8 11 6 5 10 -3 15 -9 12 -12z m46 -19 c13 -16 12 -17 -3 -4 -10 7 -18 15 -18
17 0 8 8 3 21 -13z m-203 -53 c-7 -11 -17 -20 -22 -20 -5 0 -1 9 9 20 10 11
20 20 22 20 2 0 -2 -9 -9 -20z m4325 -14 c3 -8 -2 -20 -11 -27 -14 -11 -15
-11 -5 0 6 7 9 20 6 27 -3 8 -3 14 0 14 3 0 7 -6 10 -14z m-111 -95 c-4 -11
-7 -10 -13 5 -12 29 -10 36 5 22 7 -7 11 -19 8 -27z m-2562 -23 c67 -31 121
-86 152 -153 19 -42 22 -68 23 -155 0 -100 -1 -107 -33 -163 l-32 -58 35 -46
c19 -25 35 -50 35 -54 0 -5 3 -9 8 -9 4 0 7 150 7 332 l0 333 153 3 152 3 1
-73 c5 -499 4 -601 -8 -605 -9 -4 -13 -29 -13 -79 l0 -74 158 -1 c86 -1 191
-2 232 -3 l75 -1 3 -152 3 -153 -375 0 -375 0 -15 22 c-10 15 -16 46 -17 88 0
54 -2 62 -12 46 -54 -87 -142 -148 -217 -149 -27 0 -47 -3 -45 -6 2 -3 -127
-5 -286 -3 l-289 3 0 69 c0 66 -1 70 -22 71 -22 2 -22 2 -2 6 19 4 21 11 23
101 1 63 6 99 14 104 9 5 12 65 14 218 1 147 5 215 13 225 10 12 9 16 -1 20
-11 4 -15 41 -16 165 l-3 160 303 -3 c302 -3 302 -3 357 -29z m3940 -238 c0
-5 -2 -10 -4 -10 -3 0 -8 5 -11 10 -3 6 -1 10 4 10 6 0 11 -4 11 -10z m141
-67 c13 -16 12 -17 -3 -4 -10 7 -18 15 -18 17 0 8 8 3 21 -13z m-41 -7 c0 -2
-8 -10 -17 -17 -16 -13 -17 -12 -4 4 13 16 21 21 21 13z m20 -21 c-7 -9 -15
-13 -19 -10 -3 3 1 10 9 15 21 14 24 12 10 -5z m-990 -435 c0 -5 -2 -10 -4
-10 -3 0 -8 5 -11 10 -3 6 -1 10 4 10 6 0 11 -4 11 -10z m-3930 -50 c8 -5 11
-10 5 -10 -5 0 -17 5 -25 10 -8 5 -10 10 -5 10 6 0 17 -5 25 -10z m4967 -172
c-3 -8 -6 -5 -6 6 -1 11 2 17 5 13 3 -3 4 -12 1 -19z m-20 -80 c-3 -8 -6 -5
-6 6 -1 11 2 17 5 13 3 -3 4 -12 1 -19z m-2557 -178 c29 -52 55 -98 59 -102 3
-4 34 36 67 89 33 53 65 98 72 101 6 2 -15 -52 -48 -120 -59 -123 -59 -124
-66 -241 -4 -65 -10 -120 -14 -122 -4 -2 -10 47 -13 110 -3 63 -11 122 -16
132 -10 18 -39 82 -85 187 -27 60 -33 88 -17 71 5 -6 32 -53 61 -105z m498
-80 c20 24 39 55 42 69 6 32 34 34 38 4 2 -16 10 -23 26 -23 27 0 51 -25 60
-63 8 -32 -6 -64 -41 -93 l-26 -22 57 -38 c75 -49 57 -63 -24 -19 -36 19 -68
35 -72 35 -5 0 -8 -21 -8 -47 0 -59 -19 -96 -21 -43 -1 19 -2 43 -1 52 1 10
-5 18 -13 18 -20 0 -19 16 0 24 12 4 15 19 14 60 l-2 54 -35 -16 -34 -17 7
-84 c8 -96 -9 -107 -20 -13 -8 68 -16 85 -37 77 -9 -4 -23 -43 -38 -105 -13
-55 -28 -100 -33 -100 -5 0 -6 16 -3 38 4 20 10 52 13 71 l6 34 -64 -34 c-35
-19 -69 -45 -75 -57 -7 -13 -14 -19 -18 -14 -3 5 -17 7 -31 4 -31 -6 -32 4 -1
33 14 13 23 31 21 41 -2 11 -4 27 -4 36 -1 11 -6 15 -16 12 -8 -4 -15 -2 -15
4 0 5 7 15 15 22 8 7 15 23 15 36 0 19 -5 23 -22 21 -17 -1 -23 3 -23 17 0 14
21 26 93 51 50 18 92 29 92 25 0 -5 -24 -21 -52 -37 -43 -23 -54 -34 -56 -57
-3 -26 -1 -28 20 -22 13 4 39 9 58 12 32 5 31 3 -22 -26 -56 -29 -58 -32 -58
-70 l0 -40 58 26 c31 15 65 28 75 31 9 3 17 10 17 15 0 6 -8 7 -17 3 -45 -18
-55 -18 -52 0 2 10 19 23 37 29 41 14 46 23 61 106 7 36 15 75 17 88 3 13 15
27 27 31 22 8 22 7 25 -87 l3 -95 37 43z m-1721 24 c-5 -72 -4 -76 14 -71 10
3 19 1 19 -5 0 -5 -9 -12 -19 -15 -20 -5 -33 -47 -46 -146 -10 -79 -27 -56
-23 33 3 76 2 80 -17 74 -68 -22 -65 -16 -65 -109 0 -49 -4 -84 -9 -81 -8 6
-25 121 -25 176 0 55 16 160 25 160 8 0 15 -81 10 -117 -2 -16 16 -16 56 -2
31 10 41 32 67 152 12 52 19 26 13 -49z m-1887 2 c19 -12 69 -40 110 -61 41
-21 91 -49 110 -61 20 -12 80 -44 135 -72 132 -68 207 -119 118 -80 -75 33
-493 268 -522 294 -16 14 21 0 49 -20z m4382 -32 c4 -3 8 -16 8 -29 l0 -23 40
19 c48 23 64 24 84 3 25 -24 19 -40 -26 -73 -54 -40 -86 -41 -101 -2 l-11 29
-31 -24 c-67 -51 -125 -52 -140 -4 -8 26 35 82 78 104 29 14 76 14 99 0z
m-2217 -79 c-8 -74 -38 -128 -73 -133 -34 -5 -51 46 -43 127 8 88 26 89 26 1
0 -115 28 -114 61 3 22 75 24 80 30 74 3 -3 3 -35 -1 -72z m-132 3 c11 -41
-58 -112 -121 -124 -28 -6 -32 -4 -32 15 0 30 23 82 49 109 31 31 96 31 104 0z
m1057 17 c0 -9 -191 -96 -203 -92 -17 5 66 56 127 77 53 19 76 24 76 15z
m3844 -130 c-16 -24 -15 -25 1 -19 13 5 16 3 13 -7 -2 -8 -14 -15 -26 -17 -15
-2 -22 -10 -22 -24 0 -12 -3 -19 -6 -15 -9 8 6 88 16 82 4 -3 13 2 20 10 20
24 22 17 4 -10z m-6659 -33 c-3 -3 -11 0 -18 7 -9 10 -8 11 6 5 10 -3 15 -9
12 -12z m307 -72 c18 -11 29 -20 25 -20 -11 0 -67 29 -67 35 0 9 9 5 42 -15z
m58 -20 c0 -5 -5 -10 -11 -10 -5 0 -7 5 -4 10 3 6 8 10 11 10 2 0 4 -4 4 -10z"/>
<path d="M3866 7764 c-15 -22 -16 -28 -5 -35 24 -15 29 -10 29 26 0 19 -1 35
-2 35 -2 0 -11 -12 -22 -26z"/>
<path d="M4500 7720 c-13 -9 -13 -11 0 -20 8 -5 21 -10 28 -10 22 0 53 20 47
31 -8 12 -56 11 -75 -1z"/>
<path d="M3937 7354 c-13 -13 5 -24 36 -24 30 1 31 1 13 15 -21 16 -39 19 -49
9z"/>
<path d="M3226 6597 c3 -10 9 -15 12 -12 3 3 0 11 -7 18 -10 9 -11 8 -5 -6z"/>
<path d="M900 6100 c0 -5 5 -10 11 -10 5 0 7 5 4 10 -3 6 -8 10 -11 10 -2 0
-4 -4 -4 -10z"/>
<path d="M2280 5979 c0 -5 5 -7 10 -4 6 3 10 8 10 11 0 2 -4 4 -10 4 -5 0 -10
-5 -10 -11z"/>
<path d="M2620 5300 c-9 -6 -10 -10 -3 -10 6 0 15 5 18 10 8 12 4 12 -15 0z"/>
<path d="M4220 5259 c0 -5 5 -7 10 -4 6 3 10 8 10 11 0 2 -4 4 -10 4 -5 0 -10
-5 -10 -11z"/>
<path d="M5151 5304 c0 -11 3 -14 6 -6 3 7 2 16 -1 19 -3 4 -6 -2 -5 -13z"/>
<path d="M5790 5125 c-7 -9 -10 -18 -6 -22 3 -3 6 -1 6 6 0 7 7 11 14 8 10 -4
13 -1 9 9 -6 18 -8 18 -23 -1z"/>
<path d="M5678 5093 c6 -2 18 -2 25 0 6 3 1 5 -13 5 -14 0 -19 -2 -12 -5z"/>
<path d="M5740 5079 c-21 -6 -19 -7 13 -6 20 0 37 1 37 3 0 7 -29 10 -50 3z"/>
<path d="M3943 4783 c-26 -9 -12 -23 23 -23 19 0 33 4 30 9 -7 11 -37 19 -53
14z"/>
<path d="M4620 3183 c0 -35 1 -36 15 -17 19 25 19 40 0 48 -12 4 -15 -3 -15
-31z"/>
<path d="M4621 3100 c0 -14 4 -34 9 -45 8 -18 9 -18 9 5 0 14 -4 34 -9 45 -8
18 -9 18 -9 -5z"/>
<path d="M4651 3074 c0 -11 3 -14 6 -6 3 7 2 16 -1 19 -3 4 -6 -2 -5 -13z"/>
<path d="M5460 1950 c0 -5 5 -10 11 -10 5 0 7 5 4 10 -3 6 -8 10 -11 10 -2 0
-4 -4 -4 -10z"/>
<path d="M2082 1442 l-83 -3 3 -97 3 -97 93 2 c66 1 100 6 117 17 38 25 45
103 12 144 -22 27 -63 37 -145 34z"/>
<path d="M2125 1010 c-22 -5 -60 -6 -84 -3 l-44 6 6 -36 c4 -25 1 -39 -9 -48
-8 -7 -14 -30 -14 -55 0 -41 -1 -43 -19 -32 -14 8 -28 9 -52 1 -30 -10 -31
-11 -9 -12 14 -1 38 -8 53 -16 23 -12 33 -12 50 -2 12 6 60 14 106 17 77 5 86
7 104 32 25 34 30 113 8 132 -23 20 -51 24 -96 16z m-68 -25 c0 -8 -4 -12 -9
-9 -4 3 -8 0 -8 -5 0 -6 -5 -11 -12 -11 -6 0 -3 9 7 20 22 24 22 24 22 5z"/>
<path d="M2653 883 c9 -2 25 -2 35 0 9 3 1 5 -18 5 -19 0 -27 -2 -17 -5z"/>
<path d="M2488 813 c7 -3 16 -2 19 1 4 3 -2 6 -13 5 -11 0 -14 -3 -6 -6z"/>
<path d="M2550 790 c0 -5 7 -10 15 -10 8 0 15 5 15 10 0 6 -7 10 -15 10 -8 0
-15 -4 -15 -10z"/>
<path d="M4395 330 c-3 -5 1 -10 9 -10 8 0 18 5 21 10 3 6 -1 10 -9 10 -8 0
-18 -4 -21 -10z"/>
<path d="M4456 309 c-9 -45 -7 -79 3 -79 25 0 56 81 38 99 -19 19 -34 12 -41
-20z"/>
<path d="M4300 300 c0 -19 3 -21 12 -12 9 9 9 15 0 24 -9 9 -12 7 -12 -12z"/>
<path d="M5052 290 c-18 -17 -20 -25 -12 -40 13 -24 28 -25 58 -4 28 20 26 58
-3 62 -11 1 -30 -7 -43 -18z"/>
<path d="M5222 278 c-16 -16 -15 -48 2 -48 20 0 39 27 32 45 -7 18 -18 19 -34
3z"/>
<path d="M2720 220 c-23 -23 -26 -50 -7 -50 16 0 57 42 57 58 0 19 -28 14 -50
-8z"/>
<path d="M0 6300 c0 -5 5 -10 11 -10 5 0 7 5 4 10 -3 6 -8 10 -11 10 -2 0 -4
-4 -4 -10z"/>
<path d="M6855 1519 c-4 -6 -5 -12 -2 -15 2 -3 7 2 10 11 7 17 1 20 -8 4z"/>
<path d="M6871 1488 c-1 -21 -17 -24 -24 -5 -2 6 -4 -10 -4 -36 l-1 -48 19 36
c11 20 18 44 16 53 -4 15 -5 15 -6 0z"/>
<path d="M6822 1440 c0 -14 2 -19 5 -12 2 6 2 18 0 25 -3 6 -5 1 -5 -13z"/>
<path d="M6480 1389 c0 -5 5 -7 10 -4 6 3 10 8 10 11 0 2 -4 4 -10 4 -5 0 -10
-5 -10 -11z"/>
<path d="M6810 1390 c-9 -6 -10 -10 -3 -10 6 0 15 5 18 10 8 12 4 12 -15 0z"/>
<path d="M6840 1386 c0 -2 7 -9 15 -16 9 -7 15 -8 15 -2 0 5 -7 12 -15 16 -8
3 -15 4 -15 2z"/>
<path d="M6818 1363 c7 -3 16 -2 19 1 4 3 -2 6 -13 5 -11 0 -14 -3 -6 -6z"/>
<path d="M6803 1147 c0 -32 3 -54 7 -50 4 4 4 31 0 58 l-8 50 1 -58z"/>
<path d="M4604 1163 c-3 -16 -10 -39 -14 -53 -5 -14 -12 -41 -16 -61 l-6 -37
51 -3 c58 -4 62 2 37 68 -8 21 -17 55 -21 76 -7 44 -22 48 -31 10z m26 -78 c0
-5 -5 -3 -10 5 -5 8 -10 20 -10 25 0 6 5 3 10 -5 5 -8 10 -19 10 -25z"/>
<path d="M6800 920 c0 -11 5 -20 10 -20 6 0 10 9 10 20 0 11 -4 20 -10 20 -5
0 -10 -9 -10 -20z"/>
<path d="M6840 801 c0 -47 4 -81 10 -81 6 0 10 31 10 74 0 41 -4 78 -10 81 -6
4 -10 -23 -10 -74z"/>
<path d="M6800 706 c0 -19 27 -46 46 -46 8 0 14 -9 14 -21 0 -12 5 -19 13 -16
25 8 13 41 -20 51 -22 6 -33 15 -33 27 0 11 -4 19 -10 19 -5 0 -10 -6 -10 -14z"/>
<path d="M7091 694 c0 -11 3 -14 6 -6 3 7 2 16 -1 19 -3 4 -6 -2 -5 -13z"/>
<path d="M6776 641 c-3 -5 0 -11 7 -14 8 -3 14 1 14 9 0 16 -13 19 -21 5z"/>
<path d="M5553 623 c9 -2 23 -2 30 0 6 3 -1 5 -18 5 -16 0 -22 -2 -12 -5z"/>
<path d="M5880 620 c0 -5 5 -10 10 -10 6 0 10 5 10 10 0 6 -4 10 -10 10 -5 0
-10 -4 -10 -10z"/>
<path d="M7066 608 c-7 -28 -8 -113 -1 -106 7 6 18 128 12 128 -3 0 -7 -10
-11 -22z"/>
<path d="M7041 594 c0 -11 3 -14 6 -6 3 7 2 16 -1 19 -3 4 -6 -2 -5 -13z"/>
<path d="M5379 473 c0 -5 -2 -21 -4 -38 -9 -79 -13 -245 -6 -245 4 0 17 19 29
43 12 23 31 58 42 77 10 19 23 54 28 78 9 40 8 43 -20 63 -25 18 -32 19 -39 8
-7 -11 -9 -10 -9 4 0 16 -19 25 -21 10z"/>
<path d="M3573 354 l-33 -16 0 -90 c0 -103 4 -104 60 -16 45 68 59 116 39 129
-19 12 -29 11 -66 -7z"/>
<path d="M4775 332 c-13 -9 -14 -63 -1 -59 5 2 20 17 34 35 l25 32 -24 0 c-13
0 -28 -4 -34 -8z"/>
<path d="M6120 285 c-7 -25 -11 -48 -8 -50 9 -9 77 50 78 66 0 17 -19 29 -45
29 -7 0 -18 -20 -25 -45z"/>
<path d="M7752 290 c0 -14 2 -19 5 -12 2 6 2 18 0 25 -3 6 -5 1 -5 -13z"/>
<path d="M7770 283 c0 -5 5 -15 10 -23 8 -12 10 -11 10 8 0 12 -4 22 -10 22
-5 0 -10 -3 -10 -7z"/>
<path d="M3151 264 c0 -11 3 -14 6 -6 3 7 2 16 -1 19 -3 4 -6 -2 -5 -13z"/>
<path d="M5941 204 c0 -11 3 -14 6 -6 3 7 2 16 -1 19 -3 4 -6 -2 -5 -13z"/>
<path d="M6028 199 l-38 -19 0 -90 0 -90 30 0 c32 0 33 3 35 145 0 22 4 46 9
53 13 21 4 21 -36 1z"/>
<path d="M4770 180 c0 -16 2 -30 5 -30 2 0 11 14 20 30 15 29 15 30 -5 30 -16
0 -20 -7 -20 -30z"/>
<path d="M5921 146 c-6 -7 -18 -38 -27 -67 -9 -30 -21 -60 -26 -66 -8 -10 2
-13 44 -13 l54 0 -4 68 c-5 95 -13 111 -41 78z"/>
<path d="M7760 89 c0 -5 5 -7 10 -4 6 3 10 8 10 11 0 2 -4 4 -10 4 -5 0 -10
-5 -10 -11z"/>
</g>
</svg>
