<svg width="46" height="45" viewBox="0 0 46 45" fill="none" xmlns="http://www.w3.org/2000/svg">
<ellipse cx="22.5939" cy="22.5" rx="22.5939" ry="22.5" fill="#4ECCA3"/>
<path d="M31.2839 32.2356V30.0721C31.2839 28.9245 30.8262 27.824 30.0113 27.0125C29.1965 26.201 28.0913 25.7452 26.939 25.7452H18.249C17.0966 25.7452 15.9915 26.201 15.1766 27.0125C14.3618 27.824 13.904 28.9245 13.904 30.0721V32.2356" stroke="black" stroke-width="2" stroke-linecap="round" stroke-linejoin="round"/>
<path d="M22.594 21.4183C24.9937 21.4183 26.939 19.481 26.939 17.0913C26.939 14.7016 24.9937 12.7644 22.594 12.7644C20.1943 12.7644 18.249 14.7016 18.249 17.0913C18.249 19.481 20.1943 21.4183 22.594 21.4183Z" stroke="black" stroke-width="2" stroke-linecap="round" stroke-linejoin="round"/>
</svg>
